<svg width="40" height="38" viewBox="0 0 40 38" fill="none" xmlns="http://www.w3.org/2000/svg">
<g clip-path="url(#clip0)">
<path d="M11.75 5.24994H28.25C29.7687 5.24994 30.9999 4.01876 30.9999 2.49999C30.9999 0.981214 29.7687 -0.249969 28.25 -0.249969H11.75C10.2312 -0.249969 9 0.981214 9 2.49999C9 4.01876 10.2312 5.24994 11.75 5.24994Z" fill="white"/>
<path d="M36.5 10.75H3.49996C1.98118 10.75 0.75 11.9812 0.75 13.5C0.75 15.0187 1.98118 16.2499 3.49996 16.2499H36.5C38.0187 16.2499 39.2499 15.0187 39.2499 13.5C39.2499 11.9812 38.0187 10.75 36.5 10.75Z" fill="white"/>
<path d="M36.5 21.7499H3.49996C1.98118 21.7499 0.75 22.9811 0.75 24.4999C0.75 26.0187 1.98118 27.2499 3.49996 27.2499H36.5C38.0187 27.2499 39.2499 26.0187 39.2499 24.4999C39.2499 22.9812 38.0187 21.7499 36.5 21.7499Z" fill="white"/>
<path d="M28.25 32.75H11.75C10.2312 32.75 9 33.9812 9 35.5C9 37.0188 10.2312 38.25 11.75 38.25H28.25C29.7687 38.25 30.9999 37.0188 30.9999 35.5C30.9999 33.9812 29.7687 32.75 28.25 32.75Z" fill="white"/>
</g>
<defs>
<clipPath id="clip0">
<rect width="40" height="38" fill="white"/>
</clipPath>
</defs>
</svg>
