<svg width="26" height="26" viewBox="0 0 26 26" fill="none" xmlns="http://www.w3.org/2000/svg">
<path d="M6.09375 13C6.09375 11.7118 6.44866 10.5051 7.06525 9.47186V5.08904H2.68242C0.942906 7.34819 0 10.1015 0 13C0 15.8985 0.942906 18.6518 2.68242 20.911H7.06525V16.5281C6.44866 15.4949 6.09375 14.2882 6.09375 13V13Z" fill="#FBBD00"/>
<path d="M13 19.9062L9.95312 22.9531L13 26C15.8985 26 18.6518 25.0571 20.911 23.3176V18.9394H16.5328C15.4905 19.5582 14.2787 19.9062 13 19.9062V19.9062Z" fill="#0F9D58"/>
<path d="M7.0652 16.5281L2.68237 20.911C3.02677 21.3582 3.40179 21.7866 3.80758 22.1924C6.26296 24.6478 9.52753 26 13 26V19.9063C10.48 19.9063 8.27136 18.5494 7.0652 16.5281Z" fill="#31AA52"/>
<path d="M26 13C26 12.2091 25.9284 11.4167 25.7871 10.6449L25.6728 10.0204H13V16.1141H19.1675C18.5686 17.3055 17.6477 18.2775 16.5327 18.9395L20.9109 23.3176C21.3582 22.9732 21.7865 22.5982 22.1924 22.1924C24.6477 19.737 26 16.4724 26 13V13Z" fill="#3C79E6"/>
<path d="M17.8835 8.11652L18.4221 8.65511L22.731 4.34622L22.1924 3.80763C19.737 1.35225 16.4725 0 13 0L9.95312 3.04688L13 6.09375C14.8447 6.09375 16.579 6.8121 17.8835 8.11652Z" fill="#CF2D48"/>
<path d="M13 6.09375V0C9.52759 0 6.26301 1.35225 3.80758 3.80758C3.40179 4.21337 3.02677 4.64171 2.68237 5.08904L7.0652 9.47187C8.27141 7.45063 10.48 6.09375 13 6.09375V6.09375Z" fill="#EB4132"/>
</svg>
