<svg width="415" height="318" viewBox="0 0 415 318" fill="none" xmlns="http://www.w3.org/2000/svg">
<path d="M58.4007 318C90.6545 318 116.801 314.521 116.801 310.23C116.801 305.939 90.6545 302.46 58.4007 302.46C26.1469 302.46 0 305.939 0 310.23C0 314.521 26.1469 318 58.4007 318Z" fill="#E6E6E6"/>
<path d="M29.9158 180.708V254.7L31.7923 302.467H47.274L46.3357 256.573L52.4345 212.553L62.7556 249.549L69.3236 301.531L88.0892 300.594L78.2373 247.207L75.4224 180.708H29.9158Z" fill="#2F2E41"/>
<path d="M34.1378 300.126V304.809C34.1378 304.809 23.3476 315.112 32.2613 315.112C41.1749 315.112 41.6441 312.77 41.6441 312.77C41.6441 312.77 44.9281 312.77 44.9281 311.833V300.594L34.1378 300.126Z" fill="#2F2E41"/>
<path d="M83.8668 300.126V304.809C83.8668 304.809 94.657 315.112 85.7433 315.112C76.8297 315.112 76.3605 312.77 76.3605 312.77C76.3605 312.77 73.0765 312.77 73.0765 311.833V300.594L83.8668 300.126Z" fill="#2F2E41"/>
<path d="M49.1504 117.955C55.3688 117.955 60.4098 112.922 60.4098 106.715C60.4098 100.508 55.3688 95.4758 49.1504 95.4758C42.932 95.4758 37.891 100.508 37.891 106.715C37.891 112.922 42.932 117.955 49.1504 117.955Z" fill="#FFB8B8"/>
<path d="M40.2368 110.462L40.706 127.321L55.7185 126.852V113.74L40.2368 110.462Z" fill="#FFB8B8"/>
<path d="M47.274 125.448L40.2368 120.296L37.422 183.518L70.731 182.581L62.7556 127.321L55.7185 120.589L47.274 125.448Z" fill="#CFCCE0"/>
<path d="M37.891 124.042L40.4538 118.264L41.1749 128.726C41.1749 128.726 47.2738 148.394 46.8046 165.722C46.3355 183.049 49.1503 223.792 45.3972 224.26C41.6441 224.728 25.6933 225.665 25.6933 222.387C25.6933 219.109 24.755 132.004 24.755 132.004L37.891 124.042Z" fill="#2F2E41"/>
<path d="M55.7183 118.891L61.348 124.979L75.4222 130.13C75.4222 130.13 75.4222 190.074 78.237 204.123C81.0519 218.172 86.2124 219.577 79.6445 220.045C73.0765 220.514 73.5456 218.172 73.5456 218.172C73.5456 218.172 78.237 194.757 72.1382 190.074C66.0394 185.391 54.3109 158.229 55.2491 143.243C56.1874 128.257 54.78 118.891 55.7183 118.891Z" fill="#2F2E41"/>
<path d="M21.0018 205.059L21.9401 209.274C21.9401 209.274 22.4093 227.07 28.9772 224.728C35.5452 222.387 28.5081 207.869 28.5081 207.869V205.059H21.0018Z" fill="#FFB8B8"/>
<path d="M79.4101 194.523L74.015 201.313L72.1384 195.225L73.7804 188.435L79.4101 194.523Z" fill="#FFB8B8"/>
<path d="M69.3234 129.662L73.7802 129.529C74.5644 129.464 75.3467 129.676 75.99 130.128C76.6333 130.581 77.0966 131.245 77.2988 132.004C78.237 134.814 81.521 163.38 81.521 163.38C81.521 163.38 84.3359 168.063 83.3976 175.088L80.1136 201.313L70.7308 191.01L72.1382 167.595L69.3234 129.662Z" fill="#2F2E41"/>
<path d="M27.1008 132.004L25.8551 131.337C25.8551 131.337 19.1254 133.877 19.5945 135.75C20.0637 137.623 15.8414 203.186 17.2488 205.528C18.6562 207.869 29.9156 205.996 29.9156 205.996L27.1008 132.004Z" fill="#2F2E41"/>
<path d="M59.8421 99.7359C59.8421 99.7359 63.5982 94.6515 57.1934 93.2004C57.1934 93.2004 51.8202 88.827 46.5184 92.1481C46.5184 92.1481 42.5432 90.5409 40.9227 93.377C40.9227 93.377 40.5551 91.7863 42.4695 91.0424C42.4695 91.0424 38.4943 89.4352 37.7567 94.4498C37.7567 94.4498 35.2522 99.2054 36.3552 103.977C37.4583 108.75 37.9735 109.337 37.9735 109.337C37.9735 109.337 36.4618 99.4496 43.603 99.984C50.7443 100.518 59.2906 97.3498 59.0681 102.952C58.8457 108.555 59.8024 110.232 59.8024 110.232C59.8024 110.232 66.2832 102.985 59.8421 99.7359Z" fill="#2F2E41"/>
<path d="M415 65.1746H172.644V220.112H415V65.1746Z" fill="#E6E6E6"/>
<path d="M392.292 82.3323H195.352V202.954H392.292V82.3323Z" fill="white"/>
<path d="M392.292 105.497H195.352V112.903H392.292V105.497Z" fill="#E6E6E6"/>
<path d="M392.292 141.705H195.352V149.111H392.292V141.705Z" fill="#E6E6E6"/>
<path d="M306.029 121.955H222.767V129.362H306.029V121.955Z" fill="#E6E6E6"/>
<path d="M392.292 179.97H195.352V187.377H392.292V179.97Z" fill="#E6E6E6"/>
<path d="M226.477 82.3323H219.057V184.496H226.477V82.3323Z" fill="#E6E6E6"/>
<path d="M364.972 82.3323H357.552V145.82H364.972V82.3323Z" fill="#E6E6E6"/>
<path d="M308.914 82.3323H301.495V202.954H308.914V82.3323Z" fill="#E6E6E6"/>
<path d="M266.459 142.94H259.039V202.954H266.459V142.94Z" fill="#E6E6E6"/>
<path d="M305.204 154.872C310.44 154.872 314.685 150.635 314.685 145.408C314.685 140.182 310.44 135.945 305.204 135.945C299.969 135.945 295.724 140.182 295.724 145.408C295.724 150.635 299.969 154.872 305.204 154.872Z" fill="#FF6366"/>
<path d="M306.029 0C296.522 1.24203e-06 287.404 3.76989 280.682 10.4803C273.96 17.1908 270.183 26.2921 270.183 35.7821C270.183 55.544 306.029 130.349 306.029 130.349C306.029 130.349 341.875 55.544 341.875 35.7821C341.875 26.2921 338.098 17.1908 331.376 10.4803C324.653 3.76989 315.536 1.24203e-06 306.029 0V0ZM306.029 52.8212C302.653 52.8212 299.353 51.8219 296.546 49.9496C293.738 48.0773 291.551 45.4162 290.259 42.3027C288.967 39.1892 288.629 35.7632 289.287 32.4579C289.946 29.1527 291.572 26.1166 293.959 23.7336C296.346 21.3507 299.388 19.7279 302.699 19.0704C306.01 18.4129 309.442 18.7504 312.561 20.04C315.68 21.3297 318.346 23.5136 320.222 26.3157C322.097 29.1178 323.098 32.4121 323.098 35.7821C323.098 40.3012 321.3 44.6351 318.099 47.8306C314.898 51.026 310.556 52.8212 306.029 52.8212V52.8212Z" fill="#FF6366"/>
</svg>
