<svg width="39" height="39" viewBox="0 0 39 39" fill="none" xmlns="http://www.w3.org/2000/svg">
<path d="M3.1241 28.2859C2.50799 27.809 1.89276 27.332 1.27578 26.8559C1.22502 26.8165 1.19351 26.7675 1.16988 26.7071C0.790943 25.7585 0.411127 24.8098 0.0313101 23.8611C0.00330519 23.7903 -0.00719658 23.7211 0.00505556 23.6406C0.193213 22.3996 0.380496 21.1587 0.558152 19.9168C0.585282 19.7269 0.672797 19.6385 0.847828 19.5694C1.95752 19.1292 3.07334 18.6995 4.16553 18.219C5.18159 17.7718 6.18276 17.2888 7.14018 16.7225C7.27058 16.6455 7.4106 16.5904 7.5375 16.502C7.6784 16.404 7.69765 16.5484 7.71953 16.6324C7.80004 16.9317 7.86918 17.2354 7.94707 17.5355C8.17198 18.3967 8.45116 19.2395 8.73383 20.0831C9.06289 21.065 9.44358 22.0251 9.85753 22.972C10.3852 24.178 10.9733 25.355 11.6323 26.4962C11.8091 26.8034 11.8117 26.8008 11.4731 26.8918C10.2216 27.2287 8.98062 27.5972 7.76066 28.0426C6.72361 28.4216 5.7058 28.846 4.68012 29.2512C4.50422 29.3204 4.38432 29.2993 4.25392 29.1803C4.13228 29.0692 3.99925 28.9712 3.87148 28.8679C3.63607 28.6552 3.38402 28.4662 3.1241 28.2859Z" fill="#858585"/>
<path d="M18.0803 37.4076C18.04 37.3508 17.9997 37.2947 17.9595 37.2379C17.928 37.1757 17.8729 37.1302 17.8396 37.069C16.8165 35.66 15.7944 34.2518 14.7713 32.8428C14.7346 32.7842 14.6829 32.7369 14.6497 32.6757C14.304 32.2057 13.9574 31.7366 13.6117 31.2667C13.5513 31.1643 13.4848 31.0654 13.3982 30.9823C13.2083 30.7171 13.0175 30.4528 12.8276 30.1876C12.7812 30.136 12.7427 30.0791 12.6963 30.0275C12.6132 29.8551 12.4767 29.722 12.3673 29.5689C12.2395 29.3317 12.0487 29.1374 11.9096 28.9073C11.8168 28.7979 11.6584 28.6762 11.6803 28.5581C11.7065 28.4172 11.9148 28.4714 12.04 28.4443C12.7585 28.2903 13.4813 28.1538 14.2033 28.0146C14.8641 27.8877 15.5266 27.7696 16.1856 27.6366C16.33 27.6077 16.4341 27.6322 16.5435 27.7249C17.2532 28.3253 17.9665 28.9213 18.6797 29.5181C18.769 29.5934 18.8635 29.6634 18.9554 29.736C19.232 29.9706 19.5138 30.199 19.7877 30.4362C20.381 30.9341 20.9744 31.433 21.5677 31.9309C21.6614 31.9869 21.7218 32.0832 21.8172 32.1375C21.8907 32.218 21.9817 32.2766 22.064 32.3466C22.6722 32.8542 23.2813 33.3609 23.8869 33.8711C24.4067 34.3087 24.3744 35.0132 23.8265 35.5086C23.5351 35.772 23.2577 36.0503 22.9741 36.3225C22.8385 36.4205 22.7343 36.5535 22.6048 36.6576C22.0333 37.2046 21.4619 37.7516 20.8904 38.3003C20.7215 38.4622 20.5499 38.6206 20.3732 38.7746C19.9391 39.1509 19.274 39.0416 18.9274 38.5541C18.7209 38.2635 18.5047 37.9791 18.2929 37.6921C18.236 37.587 18.1687 37.489 18.0803 37.4076Z" fill="#858585"/>
<path d="M38.4723 19.5125C38.3498 18.1744 38.1021 16.8573 37.7748 15.5542C37.4974 14.4515 37.1736 13.3611 36.7868 12.2943C36.428 11.3036 36.056 10.3156 35.5834 9.36865C35.3288 8.85756 35.1214 8.32197 34.8509 7.81963C34.3713 6.92785 33.8874 6.03782 33.3255 5.19417C33.0481 4.77672 32.7882 4.34702 32.4696 3.95758C32.425 3.90507 32.383 3.85081 32.3401 3.79743C32.1878 3.54101 31.9831 3.32485 31.801 3.09118C31.6943 3.01504 31.6417 2.89252 31.5525 2.80238C31.3556 2.58184 31.1657 2.3543 30.9591 2.14251C30.2074 1.368 29.4101 0.65038 28.3941 0.232932C27.7508 -0.0313641 27.1032 -0.100501 26.4346 0.182173C25.6417 0.518232 24.8374 0.82716 24.034 1.13871C23.8573 1.20698 23.7181 1.29974 23.6394 1.47477C23.5125 1.68919 23.3733 1.89572 23.221 2.09351C23.0425 2.34292 22.864 2.59234 22.6854 2.84176C22.6198 2.94065 22.555 3.04042 22.4771 3.13056C22.3818 3.25658 22.2864 3.38261 22.1918 3.50863C22.0431 3.71779 21.903 3.93308 21.728 4.12299C21.2624 4.69183 20.8004 5.26418 20.3295 5.82953C19.7843 6.48415 19.2006 7.10463 18.6256 7.73299C18.4716 7.92465 18.2825 8.08218 18.1215 8.26596C17.6498 8.72979 17.1833 9.19887 16.7046 9.65482C15.8522 10.467 14.9701 11.2459 14.0661 12.0002C13.8438 12.1788 13.6259 12.3617 13.3983 12.5341C13.3633 12.5665 13.3301 12.6023 13.2924 12.6312C12.2842 13.3987 11.2699 14.1566 10.2154 14.8594C10.1147 14.9267 10.0351 14.9889 10.0727 15.142C10.2408 15.8229 10.3782 16.5125 10.5619 17.189C10.7291 17.8051 10.9146 18.4195 11.143 19.0155C11.4388 19.7856 11.6848 20.5732 12.0261 21.3276C12.426 22.2106 12.7892 23.1103 13.2495 23.9662C13.6285 24.6707 14.0144 25.3708 14.4275 26.0552C14.5001 26.1751 14.5824 26.2232 14.7329 26.1961C15.3219 26.0911 15.9118 25.979 16.506 25.9134C17.4546 25.8084 18.4024 25.7016 19.3555 25.6272C20.7303 25.5213 22.1052 25.4916 23.4818 25.4968C25.5026 25.5056 27.5137 25.6561 29.5186 25.9178C30.9486 26.1042 32.3681 26.3361 33.7719 26.6669C33.8996 26.6967 34.009 26.6853 34.1307 26.6363C34.9875 26.2888 35.8477 25.9484 36.7054 25.6036C37.1963 25.4058 37.5709 25.075 37.8151 24.6016C38.0435 24.1964 38.1879 23.7588 38.3095 23.3133C38.3235 23.2669 38.341 23.2223 38.3507 23.1751C38.5975 21.9603 38.5843 20.736 38.4723 19.5125ZM35.7821 22.9431C35.7077 23.1969 35.5957 23.4341 35.4635 23.6599C35.2421 24.0388 34.8719 24.1552 34.4475 24.0126C33.848 23.8113 33.3369 23.4639 32.8652 23.056C31.8465 22.1765 31.016 21.1351 30.2651 20.0236C29.5256 18.9306 28.8876 17.7815 28.317 16.5922C27.4104 14.7018 26.6875 12.7476 26.158 10.7173C25.7625 9.198 25.4991 7.65948 25.4509 6.09208C25.4229 5.1968 25.464 4.29802 25.7511 3.43161C25.8246 3.20758 25.9191 2.99229 26.0408 2.79275C26.2814 2.39631 26.6298 2.29129 27.0726 2.43832C27.7281 2.65535 28.2645 3.06142 28.7782 3.5025C28.8518 3.55326 28.9156 3.61627 28.9804 3.67578C29.7225 4.39078 30.3842 5.17492 30.974 6.01769C31.5114 6.7852 31.9971 7.58596 32.4583 8.40336C33.3037 9.90599 33.9679 11.4909 34.556 13.1047C35.0093 14.3474 35.3682 15.6216 35.6324 16.9221C35.8731 18.107 36.042 19.2981 36.0639 20.5058C36.0788 21.3285 36.014 22.1459 35.7821 22.9431Z" fill="#858585"/>
<path d="M32.8031 16.1519C32.8005 16.4932 32.7593 16.8284 32.6254 17.1443C32.5143 17.4069 32.3778 17.4664 32.117 17.357C31.6724 17.1715 31.3407 16.8415 31.0405 16.4766C30.2599 15.5297 29.7173 14.4541 29.3034 13.3042C28.9717 12.3844 28.7459 11.4453 28.7074 10.4669C28.6943 10.1352 28.7319 9.80618 28.8159 9.48325C28.9376 9.01329 29.1686 8.92665 29.5825 9.1752C29.9921 9.42111 30.3133 9.75717 30.6021 10.1291C31.5779 11.3876 32.1949 12.8176 32.5756 14.3526C32.7217 14.9416 32.804 15.5428 32.8031 16.1519Z" fill="#858585"/>
</svg>
