<svg width="52" height="52" viewBox="0 0 52 52" fill="none" xmlns="http://www.w3.org/2000/svg">
<path d="M4.16547 37.7146C3.34399 37.0786 2.52368 36.4427 1.70104 35.8079C1.63336 35.7554 1.59135 35.6901 1.55985 35.6095C1.05459 34.3447 0.548169 33.0798 0.0417468 31.8149C0.00440692 31.7204 -0.00959544 31.6282 0.00674075 31.5208C0.257618 29.8662 0.507328 28.2116 0.744203 26.5558C0.780376 26.3026 0.897063 26.1847 1.13044 26.0925C2.61003 25.5056 4.09779 24.9327 5.55405 24.2921C6.90878 23.6958 8.24368 23.0517 9.52024 22.2967C9.6941 22.194 9.8808 22.1205 10.05 22.0027C10.2379 21.872 10.2635 22.0645 10.2927 22.1765C10.4001 22.5756 10.4922 22.9805 10.5961 23.3807C10.896 24.5289 11.2682 25.6526 11.6451 26.7775C12.0839 28.0867 12.5914 29.3668 13.1434 30.6293C13.847 32.2373 14.6311 33.8067 15.5098 35.3283C15.7455 35.7379 15.749 35.7344 15.2974 35.8558C13.6288 36.305 11.9742 36.7962 10.3476 37.3902C8.96481 37.8954 7.60774 38.4614 6.24017 39.0016C6.00562 39.0938 5.84576 39.0658 5.6719 38.9071C5.5097 38.7589 5.33234 38.6282 5.16198 38.4905C4.84809 38.207 4.51203 37.9549 4.16547 37.7146Z" fill="white"/>
<path d="M24.1071 49.8769C24.0534 49.801 23.9997 49.7263 23.9461 49.6505C23.9041 49.5676 23.8306 49.507 23.7862 49.4253C22.4221 47.5466 21.0592 45.6691 19.6952 43.7905C19.6462 43.7123 19.5773 43.6493 19.533 43.5676C19.0721 42.941 18.61 42.3155 18.1491 41.6889C18.0685 41.5524 17.9799 41.4206 17.8643 41.3097C17.6111 40.9561 17.3568 40.6037 17.1035 40.2502C17.0417 40.1813 16.9904 40.1055 16.9285 40.0366C16.8177 39.8068 16.6356 39.6294 16.4898 39.4252C16.3194 39.109 16.065 38.8499 15.8795 38.543C15.7558 38.3972 15.5446 38.235 15.5738 38.0775C15.6088 37.8896 15.8865 37.9619 16.0534 37.9258C17.0114 37.7204 17.9752 37.5384 18.9379 37.3528C19.8189 37.1836 20.7022 37.0261 21.5808 36.8487C21.7734 36.8102 21.9122 36.8429 22.0581 36.9666C23.0044 37.7671 23.9554 38.5617 24.9064 39.3575C25.0254 39.4579 25.1514 39.5512 25.274 39.6481C25.6427 39.9608 26.0184 40.2653 26.3837 40.5816C27.1748 41.2455 27.9659 41.9106 28.7571 42.5746C28.8819 42.6493 28.9624 42.7776 29.0896 42.85C29.1877 42.9573 29.309 43.0355 29.4187 43.1289C30.2297 43.8056 31.0418 44.4813 31.8493 45.1615C32.5424 45.745 32.4992 46.6843 31.7688 47.3448C31.3802 47.696 31.0103 48.0671 30.6322 48.4299C30.4514 48.5606 30.3125 48.738 30.1398 48.8769C29.3779 49.6062 28.6159 50.3355 27.8539 51.0671C27.6287 51.2829 27.4 51.4942 27.1643 51.6995C26.5855 52.2013 25.6987 52.0554 25.2366 51.4055C24.9612 51.0181 24.673 50.6388 24.3906 50.2561C24.3148 50.1161 24.225 49.9854 24.1071 49.8769Z" fill="white"/>
<path d="M51.2965 26.0167C51.1331 24.2326 50.8029 22.4764 50.3665 20.739C49.9966 19.2687 49.5649 17.8148 49.0491 16.3924C48.5707 15.0715 48.0748 13.7541 47.4447 12.4915C47.1051 11.8101 46.8286 11.096 46.468 10.4262C45.8286 9.23713 45.1833 8.05043 44.4341 6.92556C44.0642 6.36897 43.7177 5.79603 43.2929 5.27678C43.2334 5.20676 43.1774 5.13442 43.1202 5.06324C42.9172 4.72135 42.6442 4.43313 42.4015 4.12157C42.2591 4.02006 42.1891 3.8567 42.0701 3.73651C41.8075 3.44246 41.5543 3.13907 41.2789 2.85669C40.2766 1.82401 39.2136 0.867173 37.8588 0.310576C37.0012 -0.0418188 36.1377 -0.134002 35.2462 0.242898C34.189 0.690976 33.1167 1.10288 32.0455 1.51829C31.8098 1.6093 31.6242 1.73299 31.5192 1.96636C31.35 2.25225 31.1645 2.52763 30.9615 2.79134C30.7234 3.1239 30.4854 3.45646 30.2473 3.78902C30.1598 3.92087 30.0735 4.0539 29.9696 4.17408C29.8424 4.34211 29.7152 4.51014 29.5892 4.67817C29.3908 4.95705 29.2042 5.2441 28.9708 5.49732C28.35 6.25578 27.7339 7.01891 27.1061 7.77271C26.3792 8.64553 25.6009 9.47284 24.8342 10.3107C24.6288 10.5662 24.3768 10.7762 24.1621 11.0213C23.5332 11.6397 22.9112 12.2652 22.2729 12.8731C21.1364 13.956 19.9602 14.9945 18.7548 16.0003C18.4584 16.2384 18.1679 16.4822 17.8645 16.7121C17.8178 16.7553 17.7735 16.8031 17.7233 16.8416C16.3791 17.865 15.0267 18.8755 13.6206 19.8125C13.4864 19.9023 13.3802 19.9852 13.4304 20.1894C13.6544 21.0972 13.8376 22.0167 14.0827 22.9187C14.3055 23.7402 14.5529 24.5593 14.8575 25.3539C15.2519 26.3808 15.5798 27.431 16.0348 28.4368C16.5681 29.6142 17.0524 30.8137 17.6661 31.9549C18.1714 32.8943 18.686 33.8278 19.2367 34.7402C19.3336 34.9001 19.4433 34.9643 19.644 34.9281C20.4293 34.7881 21.2158 34.6387 22.0081 34.5512C23.2729 34.4112 24.5367 34.2688 25.8074 34.1697C27.6405 34.0285 29.4737 33.9888 31.3092 33.9958C34.0035 34.0075 36.685 34.2082 39.3583 34.5571C41.2649 34.8056 43.1576 35.1148 45.0292 35.5559C45.1996 35.5956 45.3455 35.5804 45.5077 35.5151C46.65 35.0518 47.7971 34.5979 48.9406 34.1381C49.5952 33.8744 50.0946 33.4334 50.4202 32.8021C50.7247 32.2618 50.9173 31.6784 51.0795 31.0844C51.0981 31.0226 51.1215 30.9631 51.1343 30.9001C51.4634 29.2805 51.4459 27.648 51.2965 26.0167ZM47.7096 30.5909C47.6104 30.9293 47.461 31.2455 47.2848 31.5465C46.9896 32.0518 46.496 32.207 45.9301 32.0168C45.1308 31.7484 44.4493 31.2851 43.8204 30.7414C42.4621 29.5687 41.3548 28.1801 40.3536 26.6982C39.3676 25.2408 38.5169 23.7087 37.7561 22.1229C36.5473 19.6024 35.5834 16.9968 34.8775 14.2897C34.3501 12.264 33.9988 10.2126 33.9346 8.12277C33.8973 6.92907 33.9521 5.73069 34.3349 4.57549C34.4329 4.27677 34.5589 3.98972 34.7211 3.72367C35.042 3.19508 35.5064 3.05506 36.0969 3.25109C36.9708 3.54047 37.6861 4.0819 38.3711 4.67C38.4691 4.73768 38.5543 4.8217 38.6406 4.90104C39.6301 5.85438 40.5123 6.89989 41.2988 8.02359C42.0152 9.04694 42.6628 10.1146 43.2778 11.2045C44.405 13.208 45.2906 15.3212 46.0748 17.4729C46.6792 19.1299 47.1576 20.8288 47.51 22.5628C47.8309 24.1427 48.0561 25.7308 48.0853 27.3411C48.1051 28.438 48.0188 29.5278 47.7096 30.5909Z" fill="white"/>
<path d="M43.7376 21.5359C43.7341 21.991 43.6792 22.4379 43.5007 22.8591C43.3525 23.2092 43.1705 23.2885 42.8227 23.1427C42.23 22.8953 41.7877 22.4554 41.3875 21.9688C40.3466 20.7063 39.6232 19.2722 39.0712 17.7389C38.629 16.5125 38.3279 15.2605 38.2766 13.9559C38.2591 13.5137 38.3093 13.0749 38.4213 12.6444C38.5835 12.0177 38.8915 11.9022 39.4435 12.2336C39.9896 12.5615 40.4178 13.0096 40.8029 13.5055C42.1039 15.1835 42.9266 17.0901 43.4342 19.1368C43.629 19.9221 43.7387 20.7238 43.7376 21.5359Z" fill="white"/>
</svg>
